<?xml version="1.0" encoding="utf-8"?>
<!-- Generator: Adobe Illustrator 24.2.3, SVG Export Plug-In . SVG Version: 6.00 Build 0)  -->
<svg version="1.1" id="Camada_1" xmlns="http://www.w3.org/2000/svg" xmlns:xlink="http://www.w3.org/1999/xlink" x="0px" y="0px"
	 viewBox="0 0 200 200" style="enable-background:new 0 0 200 200;" xml:space="preserve">
<style type="text/css">
	.st0{opacity:0.56;fill:#473E6E;}
</style>
<path class="st0" d="M127.9,52.3c15,4.7,32.9,5.2,45.6,14.2c12.8,8.9,20.3,26.3,16.8,41.1c-3.5,14.7-18.1,27-30.4,40.8
	c-12.3,13.9-22.4,29.5-35.4,32.3c-12.8,2.8-28.7-7-43.8-15.2s-29.6-14.7-39.2-26.1s-14-27.7-14.8-45.3C26.1,76.5,29.1,57.6,40,46.8
	c11-10.9,29.9-13.7,45.4-10.8C100.9,39,113,47.7,127.9,52.3z"/>
</svg>
