<?xml version="1.0" encoding="utf-8"?>
<!-- Generator: Adobe Illustrator 24.2.3, SVG Export Plug-In . SVG Version: 6.00 Build 0)  -->
<svg version="1.1" id="Layer_5" xmlns="http://www.w3.org/2000/svg" xmlns:xlink="http://www.w3.org/1999/xlink" x="0px" y="0px"
	 viewBox="0 0 512 512" style="enable-background:new 0 0 512 512;" xml:space="preserve">
<style type="text/css">
	.st0{fill:#473E6E;}
</style>
<g>
	<path class="st0" d="M184,40h80v16h-80V40z"/>
	<path class="st0" d="M184,72h80v16h-80V72z"/>
	<path class="st0" d="M216,104h16v16h-16V104z"/>
	<path class="st0" d="M184,104h16v16h-16V104z"/>
	<path class="st0" d="M248,104h16v16h-16V104z"/>
	<path class="st0" d="M305,290.3l26.3-26.3h121.5c19.5,0,35.9-14.7,38.1-34.1l12.8-115.3c0.2-1.4,0.2-2.8,0.2-4.2
		c0-21.1-17.2-38.3-38.3-38.3H293.4l2.4-21.4c0.2-1.4,0.2-2.8,0.2-4.2C296,25.2,278.8,8,257.7,8H46.3C25.2,8,8,25.2,8,46.3
		c0,1.4,0.1,2.8,0.2,4.2L21,165.9c2.2,19.4,18.5,34.1,38.1,34.1H136v64h-32v-32H8v80h96v-32h32v80h-32v-32H8v80h96v-32h32v80h-32
		v-32H8v80h96v-32h48v-96h88v24h40v32h-40v64h96v-24h64v24h96v-64h-40v-32h40v-64h-96v24h-64v-24h-40v-40.7
		C299.4,294.5,302.5,292.8,305,290.3L305,290.3z M88,296H24v-48h64V296z M88,392H24v-48h64V392z M88,488H24v-48h64V488z M376,144
		c0-13.2,10.8-24,24-24s24,10.8,24,24s-10.8,24-24,24S376,157.2,376,144z M448,248h-96v-16c0-26.5,21.5-48,48-48s48,21.5,48,48V248z
		 M291.6,88h174.1C478,88,488,98,488,110.3c0,0.8,0,1.6-0.1,2.5L475,228.1c-0.8,7.3-5.1,13.4-11,16.8v-13
		c0-25.9-15.4-48.1-37.6-58.2c8.3-7.3,13.6-17.9,13.6-29.8c0-22.1-17.9-40-40-40s-40,17.9-40,40c0,11.9,5.3,22.4,13.6,29.8
		C351.4,183.9,336,206.1,336,232v16h-11.3l-31,31c-1.9,1.9-5.7,0.4-5.7-2.3V248h-20.9c-11.4,0-20.9-8.5-22.2-19.9l-3.1-28.1h3
		c19.5,0,35.9-14.7,38.1-34.1L291.6,88z M37,164.1L24.1,48.8C24,48,24,47.1,24,46.3C24,34,34,24,46.3,24h211.4
		C270,24,280,34,280,46.3c0,0.8,0,1.6-0.1,2.5L267,164.1c-1.2,11.3-10.8,19.9-22.2,19.9H208v28.7c0,2.7-3.8,4.2-5.7,2.3L176,188.7
		V168c0-25.9-15.4-48.1-37.6-58.2c8.2-7.3,13.6-17.9,13.6-29.8c0-22.1-17.9-40-40-40S72,57.9,72,80c0,11.9,5.3,22.4,13.6,29.8
		C63.4,119.9,48,142.1,48,168v13C42,177.5,37.8,171.4,37,164.1L37,164.1z M88,80c0-13.2,10.8-24,24-24s24,10.8,24,24s-10.8,24-24,24
		S88,93.2,88,80z M160,184H64v-16c0-26.5,21.5-48,48-48s48,21.5,48,48V184z M320,480h-64v-32h64V480z M480,480h-64v-32h64V480z
		 M416,352h64v32h-64V352z M400,376v24h40v32h-40v24h-64v-24h-40v-32h40v-24H400z M320,384h-64v-32h64V384z M240,336v24h-88V200
		h12.7l26.3,26.3c3.6,3.6,8.6,5.7,13.7,5.7c10.6,0,19.3-8.7,19.3-19.3V200h1.7l3.3,29.9c2.2,19.4,18.5,34.1,38.1,34.1h4.9v12.7
		c0,6.4,3.2,12.1,8,15.6V336L240,336z"/>
	<path class="st0" d="M40,456h32v16H40V456z"/>
	<path class="st0" d="M40,360h32v16H40V360z"/>
	<path class="st0" d="M40,264h32v16H40V264z"/>
</g>
</svg>
