<?xml version="1.0" encoding="iso-8859-1"?>
<!-- Generator: Adobe Illustrator 19.0.0, SVG Export Plug-In . SVG Version: 6.00 Build 0)  -->
<svg version="1.1" id="Capa_1" xmlns="http://www.w3.org/2000/svg" xmlns:xlink="http://www.w3.org/1999/xlink" x="0px" y="0px"
	 viewBox="0 0 512 512" style="enable-background:new 0 0 512 512;" xml:space="preserve">
<circle style="fill:#D9D9DB;" cx="256" cy="256" r="256"/>
<path style="fill:#AEADB3;" d="M512,256c0-31.545-5.72-61.751-16.155-89.655L420.75,91.25H91.25v329.5l75.095,75.095
	C194.249,506.28,224.455,512,256,512C397.385,512,512,397.385,512,256z"/>
<rect x="256" y="91.25" style="fill:#008878;" width="164.75" height="164.75"/>
<path style="fill:#681F7B;" d="M351.238,256v-6.169c0-2.003,1.253-3.747,3.1-4.521c6.961-2.918,11.886-9.801,11.886-17.789l0,0
	c0-10.612-8.683-19.295-19.295-19.295h-17.107c-10.612,0-19.295,8.683-19.295,19.295l0,0c0,7.989,4.925,14.871,11.886,17.789
	c1.847,0.774,3.1,2.518,3.1,4.521V256H256v164.75h164.75V256H351.238z"/>
<path style="fill:#FFB84D;" d="M283.725,310.526L283.725,310.526c-7.989,0-14.871,4.925-17.789,11.886
	c-0.774,1.847-2.518,3.1-4.521,3.1H256V256H91.25v164.75H256v-69.512h5.415c2.003,0,3.747,1.253,4.521,3.1
	c2.918,6.961,9.801,11.886,17.789,11.886l0,0c10.612,0,19.295-8.683,19.295-19.295v-17.107
	C303.02,319.209,294.337,310.526,283.725,310.526z"/>
<path style="fill:#FF8900;" d="M303.02,329.82v17.11c0,5.31-2.17,10.13-5.67,13.62c-3.49,3.5-8.31,5.67-13.62,5.67
	c-7.99,0-14.88-4.92-17.79-11.88c-0.78-1.85-2.52-3.1-4.53-3.1H256v-25.73h5.41c2.01,0,3.75-1.25,4.53-3.1
	c2.91-6.96,9.8-11.88,17.79-11.88C294.34,310.53,303.02,319.21,303.02,329.82z"/>
<path style="fill:#FF328E;" d="M256,256V91.25H91.25V256h69.512v7.262c0,2.003-1.253,3.747-3.099,4.521
	c-6.961,2.918-11.886,9.801-11.886,17.789l0,0c0,10.612,8.683,19.295,19.295,19.295h17.107c10.612,0,19.295-8.683,19.295-19.295l0,0
	c0-7.988-4.925-14.871-11.886-17.789c-1.847-0.774-3.099-2.518-3.099-4.521V256H256z"/>
<path style="fill:#00AD95;" d="M245.077,157.662c-2.918-6.961-9.801-11.886-17.789-11.886l0,0c-10.612,0-19.295,8.683-19.295,19.295
	v17.107c0,10.612,8.683,19.295,19.295,19.295l0,0c7.989,0,14.871-4.925,17.789-11.886c0.774-1.847,2.518-3.099,4.521-3.099H256
	v-25.727h-6.402C247.596,160.762,245.851,159.509,245.077,157.662z"/>
<g>
</g>
<g>
</g>
<g>
</g>
<g>
</g>
<g>
</g>
<g>
</g>
<g>
</g>
<g>
</g>
<g>
</g>
<g>
</g>
<g>
</g>
<g>
</g>
<g>
</g>
<g>
</g>
<g>
</g>
</svg>
