<?xml version="1.0" encoding="utf-8"?>
<!-- Generator: Adobe Illustrator 24.2.3, SVG Export Plug-In . SVG Version: 6.00 Build 0)  -->
<svg version="1.1" id="Camada_1" xmlns="http://www.w3.org/2000/svg" xmlns:xlink="http://www.w3.org/1999/xlink" x="0px" y="0px"
	 viewBox="0 0 374 374" style="enable-background:new 0 0 374 374;" xml:space="preserve">
<style type="text/css">
	.st0{fill:#473E6E;}
</style>
<path class="st0" d="M328.6,75.7L188.1,0.8c-2.1-1.1-4.6-1.1-6.7,0L44.7,75.8c-2.2,1.2-3.6,3.6-3.6,6.1v97.8
	c0.1,80.4,47.7,153.2,121.4,185.4l19,8.3c1.8,0.8,3.8,0.8,5.6,0l21.4-9.2c75.1-31.5,123.9-105,123.9-186.4V81.9
	C332.3,79.3,330.9,76.9,328.6,75.7z M318.3,177.8c0,75.8-45.5,144.2-115.4,173.5l0,0l-18.6,8l-16.2-7.1c-68.6-30-113-97.7-113-172.6
	V86l129.7-71.1l133.5,71.1V177.8z"/>
<path class="st0" d="M133.2,175.2c-2.5-2.9-6.9-3.3-9.9-0.8c-2.9,2.5-3.3,6.9-0.8,9.9l37,43.3c2.5,2.9,6.8,3.3,9.7,0.9l86.1-70
	c3-2.4,3.5-6.8,1-9.8c-2.4-3-6.8-3.5-9.8-1l-80.8,65.7L133.2,175.2z"/>
</svg>
