<?xml version="1.0" encoding="utf-8"?>
<!-- Generator: Adobe Illustrator 24.2.3, SVG Export Plug-In . SVG Version: 6.00 Build 0)  -->
<svg version="1.1" id="Layer_5" xmlns="http://www.w3.org/2000/svg" xmlns:xlink="http://www.w3.org/1999/xlink" x="0px" y="0px"
	 viewBox="0 0 512 512" style="enable-background:new 0 0 512 512;" xml:space="preserve">
<style type="text/css">
	.st0{fill:#473E6E;}
</style>
<g>
	<path class="st0" d="M504,211.9l-64-45.7L416.5,183c-10.9-16.6-24.2-31.3-39.6-43.9C396.4,125.6,408,103.8,408,80
		c0-20.5-8.8-40.1-24-53.7c-15.3-13.7-35.8-20.1-56.3-17.8c-32.4,3.7-58.9,29.8-63,62.1c-1.1,8.8-0.5,17.5,1.4,25.7
		c-13.2-0.7-26.4,0-39.3,2l-7.6-7.6l-20.4,10.5c-5.7-2.9-11.6-5.4-17.8-7.4l-7-21.9h-59.7l-7,21.9c-6.2,2-12.2,4.5-17.8,7.4
		L68.9,90.7l-42.2,42.2l10.5,20.4c-2.9,5.7-5.4,11.6-7.4,17.8l-21.9,7v59.7l21.9,7c2,6.2,4.5,12.2,7.4,17.8l-10.5,20.4l42.2,42.2
		l2.3-1.2c0.5,2.5,0.8,5,0.8,7.5v32.9c0,8.6,2,17.2,5.8,24.9L96,425.9v15.6c-9.3,3.3-16,12.1-16,22.5v40h176v-24
		c13.5,0,26.9-1.5,40-4.2v4.2c0,13.2,10.8,24,24,24h64c13.2,0,24-10.8,24-24v-74.8c24.5-31.7,38.1-69.2,39.7-109.2H488v-64h16
		L504,211.9z M482.2,216h-84.5l42.2-30.2L482.2,216z M352,168c0,8.8-7.2,16-16,16s-16-7.2-16-16H352z M328,80c0-4.4,3.6-8,8-8
		s8,3.6,8,8s-3.6,8-8,8S328,84.4,328,80z M280.5,72.6c3.2-25.1,23.8-45.4,49-48.2c2.2-0.3,4.4-0.4,6.6-0.4
		c13.8,0,26.8,4.9,37.2,14.2C385.2,48.8,392,64.1,392,80c0,19.1-9.6,36.7-25.8,47.1c-8.5,5.4-13.6,14.7-14.1,24.9H344v-49.5
		c9.3-3.3,16-12.1,16-22.5c0-13.2-10.8-24-24-24s-24,10.8-24,24c0,10.4,6.7,19.2,16,22.5V152h-8.1c-0.6-10.3-5.7-19.5-14-24.8
		C287.4,115.4,277.7,94.5,280.5,72.6L280.5,72.6z M53.2,258.7c-3.9-6.9-7-14.5-9.2-22.4l-1.2-4.1l-18.8-6v-36.3l18.8-6l1.2-4.1
		c2.2-7.9,5.3-15.4,9.2-22.4l2.1-3.8l-9-17.6L72,110.3l17.6,9l3.8-2.1c6.9-3.9,14.5-7,22.4-9.2l4.1-1.2l6-18.8h36.3l6,18.8l4.1,1.2
		c7.9,2.2,15.4,5.3,22.4,9.2l3.8,2.1l17.6-9l25.7,25.7l-9,17.6l2.1,3.8c3.9,6.9,7,14.5,9.2,22.4l1.2,4.1l18.8,6v36.3l-18.8,6
		l-1.2,4.1c-2.2,7.9-5.3,15.4-9.2,22.4l-2.1,3.7l1.2,2.4c-1,0.3-1.9,0.5-2.8,0.9c-1.6-6-5.5-11-10.7-14.2
		C228,238.3,232,223.5,232,208c0-48.5-39.5-88-88-88s-88,39.5-88,88c0,20.9,7.4,40.4,20,55.8c-11.1,0.5-20,9.6-20,20.8
		c0,2.1,0.4,4.1,1,6.1L46.3,280l9-17.6L53.2,258.7z M192,254.2c-4.3-3.8-9.8-6.2-16-6.2c-2.8,0-5.5,0.6-8,1.5V176
		c0-13.2-10.8-24-24-24s-24,10.8-24,24v99.8c-28.3-10-48-37.1-48-67.8c0-39.7,32.3-72,72-72s72,32.3,72,72
		c0,14.6-4.3,28.5-12.5,40.5C199.1,249.3,195.2,251.4,192,254.2L192,254.2z M92.2,382.2c-2.7-5.5-4.2-11.6-4.2-17.8v-32.9
		c0-9-2.1-18-6.2-26.1l-9.3-18.6c-0.3-0.7-0.5-1.4-0.5-2.2c0-2.7,2.2-4.9,5.7-4.9c23.3,0,42.3,19,42.3,42.3v13.7v16h16v-16V322V176
		c0-4.4,3.6-8,8-8s8,3.6,8,8v96v32h16v-32c0-4.4,3.6-8,8-8s8,3.6,8,8v32h16v-32c0-4.4,3.6-8,8-8s8,3.6,8,8v16v16h16v-16
		c0-4.4,3.6-8,8-8s8,3.6,8,8v88c0,8.6-2.8,17.1-8,24l-16,21.3V440H112v-17.9L92.2,382.2z M240,488H96v-24c0-4.4,3.6-8,8-8h128
		c4.4,0,8,3.6,8,8V488z M392,360h-80v-8c0-4.4,3.6-8,8-8h64c4.4,0,8,3.6,8,8V360z M312,376h80v80h-80V376z M384,488h-64
		c-4.4,0-8-3.6-8-8v-8h80v8C392,484.4,388.4,488,384,488z M408,376.6V352c0-13.2-10.8-24-24-24h-64c-13.2,0-24,10.8-24,24v107.3
		c-13.1,3-26.6,4.6-40,4.6c-0.1-10.4-6.7-19.1-16-22.4v-14.8l12.8-17.1C260,400,264,388,264,376v-88c0-8.1-4.1-15.3-10.3-19.7
		l-2.9-5.6c2.9-5.7,5.4-11.6,7.4-17.8l21.9-7v-59.7l-21.9-7c-2-6.2-4.5-12.2-7.4-17.8l10.5-20.4l-20.2-20.2
		c10.3-0.9,20.7-0.8,31,0.1c5.7,11.1,14.2,20.8,25.3,27.8c4.1,2.6,6.7,7.8,6.7,13.3v14c0,17.6,14.4,32,32,32s32-14.4,32-32v-14.3
		c0-0.4,0.1-0.7,0.1-1.1c13.8,11.4,25.6,24.7,35.3,39.7L376,211.9V232h16v64h39.7C430.4,324.8,422.4,352.1,408,376.6L408,376.6z
		 M472,280h-64v-48h64V280z"/>
	<path class="st0" d="M360,280h16v16h-16V280z"/>
	<path class="st0" d="M328,280h16v16h-16V280z"/>
	<path class="st0" d="M296,280h16v16h-16V280z"/>
</g>
</svg>
